HIERARCHY
ROOT PELVIS
{
    OFFSET 0 0 0
    CHANNELS 6 Xposition Yposition Zposition Xrotation Yrotation Zrotation
    JOINT HIP_LEFT
    {
        OFFSET 7.179837000000004 -0.16621849999999938 -4.143481400000018
        CHANNELS 3 Xrotation Yrotation Zrotation
        JOINT KNEE_LEFT
        {
            OFFSET 1.8186462000000005 -36.3250458 1.54128410000003
            CHANNELS 3 Xrotation Yrotation Zrotation
            JOINT ANKLE_LEFT
            {
                OFFSET 5.139150999999998 -31.740254200000003 13.285449299999982
                CHANNELS 3 Xrotation Yrotation Zrotation
                JOINT FOOT_LEFT
                {
                    OFFSET -1.627920499999999 -12.280194099999994 -11.693652399999973
                    CHANNELS 3 Xrotation Yrotation Zrotation
                }
            }
        }
    }
    JOINT HIP_RIGHT
    {
        OFFSET -6.474380499999998 0.14957740000000114 3.736352500000021
        CHANNELS 3 Xrotation Yrotation Zrotation
        JOINT KNEE_RIGHT
        {
            OFFSET 2.1862212999999997 -35.5006073 7.567529299999978
            CHANNELS 3 Xrotation Yrotation Zrotation
            JOINT ANKLE_RIGHT
            {
                OFFSET 6.129772899999997 -33.16903229999999 9.909472700000014
                CHANNELS 3 Xrotation Yrotation Zrotation
                JOINT FOOT_RIGHT
                {
                    OFFSET -9.378500299999999 -10.563830600000006 -6.789648400000033
                    CHANNELS 3 Xrotation Yrotation Zrotation
                }
            }
        }
    }
}
MOTION
Frames: 26
Frame Time: 0.01
0 0 0 -1.1667634308008834 6.771373654230653 -2.1436699965044235 24.350872554986726 1.9287499713588387 -9.156836075701449 -21.694336223367806 4.052184320758202 16.00625211310648 11.874787694404684 6.059087404193357 -6.708666374998632 0 0 0 27.020172571184098 1.6494721139668926 -19.90546686633467 -27.22251082010209 8.964896073241201 24.505385637961897 15.430110612624139 -5.786396313800861 -10.859857755252452 0 0 0 
0 0 0 -1.195845287924387 6.7322425041327625 -2.1903432229919426 24.00805290375423 1.8067840272580995 -8.753950747649371 -21.33896400589263 3.8277356472920276 15.517715401455616 12.369119100340741 5.965071166174045 -6.666064698315425 0 0 0 26.63735635631347 1.5225101157993735 -19.45114257118438 -26.919191819133808 8.696548787846861 24.061469758623428 15.91599987214896 -6.096369825515381 -10.966566902363112 0 0 0 
0 0 0 -1.2247190412480229 6.693316714413711 -2.236713619454112 23.666176494179428 1.6888909216041115 -8.35265260533021 -20.98262507109871 3.6075466125168396 15.031612332778039 12.85850500613289 5.871022220958921 -6.625295012078937 0 0 0 26.255697864209505 1.4004679988258233 -18.99844752278954 -26.615012592989867 8.432078586331535 23.619709062018465 16.398969948209373 -6.403780249246146 -11.07568360473719 0 0 0 
0 0 0 -1.2533867917332997 6.6545948387099445 -2.2827840182472703 23.325326963079515 1.5750351383658225 -7.953021755330379 -20.625442587319235 3.391605118331993 14.547988234097676 13.342961120415337 5.776973243872058 -6.5863249773128185 0 0 0 25.875310555132213 1.2833017248541456 -18.547499940187375 -26.310101446617022 8.17150320370009 23.180155178761275 16.87900654132588 -6.7085937599461625 -11.187128871107062 0 0 0 
0 0 0 -1.2818506136436567 6.616075441888326 -2.328557217904729 22.985585862052137 1.4651789541330997 -7.555135907793921 -20.267537501463973 3.1798962237953425 14.06688734908958 13.822504520963495 5.68295552954833 -6.549122201665223 0 0 0 25.49630499274197 1.1709638659155102 -18.09841463202831 -26.0045840810361 7.914836581969121 22.742858791117474 17.356095387618687 -7.010779124158484 -11.300824498227492 0 0 0 
0 0 0 -1.3007462057422654 6.590464239185765 -2.3589604275673195 22.75936342545282 1.394024645646619 -7.290436866367108 -20.02818493650383 3.0408654179521233 13.747034692791157 14.140016879480807 5.6202027960619 -6.525246293185131 0 0 0 25.244027927057147 1.0986085256835916 -17.799607783473633 -25.800283024641942 7.745616534601556 22.452114041796726 17.673046766372224 -7.211100640684302 -11.377965271365186 0 0 0 
0 0 0 -1.2836470286030457 6.862416704527789 -2.335078469989314 22.024667409492096 1.319222568852303 -7.040010078871838 -19.082856940131478 2.859071781342662 13.323583616905928 12.845553878546301 5.311253939927181 -6.283754357006345 0 0 0 24.43269584039794 0.9827490517672879 -17.682683621404703 -24.66964643137143 7.506115892053935 22.14667200450411 16.72978738202726 -7.344322028937111 -10.37271335047092 0 0 0 
0 0 0 -1.2663878866434515 7.13458897240452 -2.3110461634732755 21.288207215047162 1.246273505734511 -6.788792080956901 -18.138477824791494 2.6823966361518328 12.89040164316422 11.55632052476062 5.008800363022564 -6.019728970995054 0 0 0 23.619829133031935 0.8659066778868141 -17.563525907487058 -23.540534062381262 7.2643611166948165 21.828391289301987 15.78564846278131 -7.463146395884408 -9.351763192887544 0 0 0 
0 0 0 -1.2489679219971754 7.406968783436029 -2.286862810119371 20.55024686697737 1.1752223747832722 -6.536879532992796 -17.195323421895285 2.5112028709423098 12.447672779677807 10.273076918449261 4.714027214234232 -5.733384377008195 0 0 0 22.805734472968435 0.7481707891199614 -17.44213989738146 -22.413221052347673 7.020978310800886 21.497260924702015 14.84167977883307 -7.566662193003126 -8.315914713315006 0 0 0 
0 0 0 -1.2313862812809115 7.679543818758238 -2.262527715985549 19.811053029230113 1.1061108334271237 -6.284370877782637 -16.253676008777177 2.345844585910815 11.995597161984708 8.996596902908331 4.42809211518327 -5.42502062858142 0 0 0 21.99072054708302 0.6296316930223727 -17.318535382666198 -21.28797865604862 6.776592859766354 21.153299293080373 13.89895075819457 -7.6540155876003455 -7.266029879798287 0 0 0 
0 0 0 -1.2136421157247332 7.952301703229091 -2.238040191183904 19.070894425678155 1.0389771483723667 -6.031366092000698 -15.313823998098943 2.18666613073576 11.534390543489721 7.7276672973512115 4.152117915930574 -5.095021266545718 0 0 0 21.17509735820734 0.5103803259101483 -17.192726684771035 -20.165074650600708 6.5318276282132235 20.79655373400684 12.958546935925613 -7.724416165211734 -6.2030280946111995 0 0 0 
0 0 0 -1.19573458130109 8.225230008668492 -2.2133995499756725 18.330041249982877 0.9738560813600096 -5.777966428930558 -14.37606157705111 2.034001176846303 11.064283718919766 6.46708678188797 3.8871857188915904 -4.74385030865533 0 0 0 20.359175514439503 0.39050795686983353 -17.064732625521575 -19.044773737265373 6.287301181246598 20.427100041960152 12.021565933915612 -7.7771420776300975 -5.127880879385405 0 0 0 
0 0 0 -1.1837044466283977 8.407279834343157 -2.1968862271109035 17.835862390188872 0.9315736045300935 -5.6088559540452 -13.752164066984182 1.9359978965348479 10.74603911591943 5.631695657530061 3.7172025121973937 -4.498225869163965 0 0 0 19.815187861722237 0.31028912357509997 -16.978196122762416 -18.29944488343807 6.12471087146001 20.173774759163148 11.399328081475126 -7.8021509699159015 -4.404833197729426 0 0 0 
0 0 0 -1.129899884995717 8.002514988116017 -2.1040808535247013 17.664701245662155 0.9090947318843201 -5.28185337036811 -13.56686074942008 1.7350770071157589 10.23721997143387 4.849963569200241 3.7909561511775984 -4.407327722367381 0 0 0 19.61472563088541 0.3059092260261442 -16.280531442973665 -18.33098362272705 5.719782635981249 19.377810395372528 11.194059947100303 -7.387752803410939 -4.669686583977527 0 0 0 
0 0 0 -1.0770625998944645 7.599659601731556 -2.0121926808703288 17.49420895007197 0.887064121028288 -4.95691830775068 -13.374936987178787 1.5393202872387828 9.731806563476754 4.065420890128124 3.8626780705151167 -4.321879711154093 0 0 0 19.414060315907836 0.30345361460063774 -15.586657459594239 -18.343623831097926 5.319202301258501 18.58631784800426 10.980896115013094 -6.970739050124939 -4.929474343741996 0 0 0 
0 0 0 -1.0251787496185072 7.1987436045989055 -1.921210896140757 17.32440670437665 0.8654815974093142 -4.634059829453902 -13.176598932125719 1.3487283128895484 9.229863362662021 3.27840987425034 3.932329186426096 -4.241939445346997 0 0 0 19.21328795326329 0.3029121852482341 -14.896758115248453 -18.3377632131538 4.923390088350206 17.799407048081143 10.760271208488284 -6.551088253569876 -5.184519472323677 0 0 0 
0 0 0 -1.00815154448797 7.065993437168998 -1.891185465400653 17.268154636280055 0.8584109759602347 -4.527267192570409 -13.109326998661352 1.2865559145344667 9.063896600564604 3.0164769028722422 3.955001286177226 -4.216611133650955 0 0 0 19.14658401356692 0.3031537355567857 -14.668483776243088 -18.331792854068688 4.793025917738567 17.539027751524962 10.685402142390334 -6.41109536387903 -5.268250174697909 0 0 0 
0 0 0 -0.9474849981431264 6.4329940509596115 -1.7804769619371688 17.31038006499559 0.8629826755243901 -4.312366403253305 -13.16916712261683 1.1270042449113657 8.642674943561753 2.5971646896782636 4.10253515831296 -4.258760383560494 0 0 0 18.779953232784035 0.2580902694948752 -14.066356925824016 -18.195933923971758 4.425038293284395 16.68058518319267 11.020392667560355 -6.572510207083129 -5.395816844226148 0 0 0 
0 0 0 -0.8884178359147682 5.8033920048653185 -1.6711353502613666 17.352764502999786 0.8673915746432933 -4.099003485763636 -13.222815070497328 0.9686599665895681 8.222563918306266 2.1752991527488 4.244592706648113 -4.304030866816011 0 0 0 18.41403863148875 0.21742202332475927 -13.467591535290401 -18.038802913047988 4.0641469924931535 15.831395883668865 11.344387646880456 -6.720753937235754 -5.52106166683033 0 0 0 
0 0 0 -0.8309229353933043 5.177319105258198 -1.5631416829029352 17.39530916188386 0.8716398196990044 -3.8871512088760274 -13.270363989403348 0.8115544705857745 7.803626922390053 1.7509832359194974 4.381253755477777 -4.3523942205093515 0 0 0 18.048988119990774 0.18109185638601644 -12.872354248172812 -17.861061037702086 3.710731112416121 14.991615914029476 11.657840486264046 -6.855873544914228 -5.644206239124994 0 0 0 
0 0 0 -0.7749732350933494 4.55490200945279 -1.4564771204288207 17.438014395534445 0.8757294179471654 -3.676782623416109 -13.311908674014253 0.6557179545712463 7.385925140550715 1.3243224706150172 4.51259595529613 -4.403822729830629 0 0 0 17.684945976183734 0.1490381737189869 -12.28080544361003 -17.663382267177287 3.3651380772698896 14.161397511037793 11.961217917832139 -6.977934326843541 -5.765445105792098 0 0 0 
0 0 0 -0.7205417514179505 3.9362621496565477 -1.3511229381038725 17.480879731041377 0.8796622470853172 -3.4678711082290348 -13.347545389512282 0.5011793958675601 6.969517581721848 0.8954248186029697 4.63869472216511 -4.458289100247326 0 0 0 17.322052616244115 0.12119519210432994 -11.693099055981563 -17.4464511626663 3.02768355858367 13.340889136826506 12.254995960009916 -7.087020287760559 -5.884946208521857 0 0 0 
0 0 0 -0.6676015953285555 3.3215156726947273 -1.2470605324201218 17.52390390140331 0.883440064689414 -3.260390412882337 -13.377371700671988 0.34796652924659066 6.554461118056802 0.4644005086750501 4.759623198241271 -4.515766239060463 0 0 0 16.960444386224516 0.09749321255387845 -11.109382420820973 -17.21096076322001 2.698651547099927 12.5302354466364 12.539656116573568 -7.183234339614998 -6.002851523275824 0 0 0 
0 0 0 -0.6331217366698275 2.9138822874826826 -1.1783907003820093 17.552675392766407 0.8858734296902403 -3.122845209159748 -13.394077376712884 0.2465691854511264 6.278520771813973 0.17591043557998542 4.837408712844652 -4.5557456367860505 0 0 0 16.720139605033015 0.08395574277886275 -10.722504946672787 -17.04399310834336 2.484091402909389 11.995317512814589 12.724611976125034 -7.240288077674223 -6.080631086406286 0 0 0 
0 0 0 -0.6179690896849829 2.7252449228787983 -1.1477740191217982 17.258190838605422 0.8417062898288736 -2.79565056234293 -12.995683216364322 0.10424383504128874 5.801870435244363 0.07654442217011946 4.664518794004184 -4.36527031789476 0 0 0 16.35963968797673 0.051102366189426124 -10.424991386172813 -16.673289952286517 2.333527353933687 11.58812516093402 12.515450720732227 -7.327197474969278 -5.716528474905008 0 0 0 
0 0 0 -0.6029480971944324 2.536987427448473 -1.1172706730012882 16.963755541016678 0.7990505396011116 -2.469161412650467 -12.594091246385739 -0.033145182654450225 5.327258444707327 -0.026281206029252244 4.4929674568596605 -4.176863243037575 0 0 0 15.999546393418726 0.020301223913854208 -10.127861549040425 -16.30007567470422 2.186667202602916 11.182754961922187 12.304149539212354 -7.411335638834569 -5.354514832223895 0 0 0 
